<svg width="35" height="35" viewBox="0 0 35 35" fill="none" xmlns="http://www.w3.org/2000/svg">
<path d="M13.125 32.0834H21.875C29.1666 32.0834 32.0833 29.1667 32.0833 21.875V13.125C32.0833 5.83335 29.1666 2.91669 21.875 2.91669H13.125C5.83329 2.91669 2.91663 5.83335 2.91663 13.125V21.875C2.91663 29.1667 5.83329 32.0834 13.125 32.0834Z" stroke="#000" stroke-width="1.5" stroke-linecap="round" stroke-linejoin="round"/>
<path d="M22.7062 26.9791V21.2916M22.7062 10.8646V8.02081M22.7062 10.8646C23.2042 10.8646 23.6972 10.9626 24.1573 11.1532C24.6173 11.3437 25.0353 11.623 25.3874 11.9751C25.7394 12.3272 26.0187 12.7452 26.2093 13.2052C26.3998 13.6652 26.4979 14.1583 26.4979 14.6562C26.4979 15.1542 26.3998 15.6472 26.2093 16.1072C26.0187 16.5673 25.7394 16.9853 25.3874 17.3373C25.0353 17.6894 24.6173 17.9687 24.1573 18.1593C23.6972 18.3498 23.2042 18.4479 22.7062 18.4479C21.7006 18.4479 20.7362 18.0484 20.0251 17.3373C19.3141 16.6263 18.9146 15.6618 18.9146 14.6562C18.9146 13.6506 19.3141 12.6862 20.0251 11.9751C20.7362 11.264 21.7006 10.8646 22.7062 10.8646ZM12.2937 26.9791V24.1354M12.2937 24.1354C12.7917 24.1354 13.2847 24.0373 13.7448 23.8468C14.2048 23.6562 14.6228 23.3769 14.9749 23.0248C15.3269 22.6728 15.6062 22.2548 15.7968 21.7947C15.9873 21.3347 16.0854 20.8417 16.0854 20.3437C16.0854 19.8458 15.9873 19.3527 15.7968 18.8927C15.6062 18.4327 15.3269 18.0147 14.9749 17.6626C14.6228 17.3105 14.2048 17.0312 13.7448 16.8407C13.2847 16.6501 12.7917 16.5521 12.2937 16.5521C11.2881 16.5521 10.3237 16.9515 9.61263 17.6626C8.90155 18.3737 8.50208 19.3381 8.50208 20.3437C8.50208 21.3493 8.90155 22.3138 9.61263 23.0248C10.3237 23.7359 11.2881 24.1354 12.2937 24.1354ZM12.2937 13.7083V8.02081" stroke="#000" stroke-width="1.5" stroke-miterlimit="10" stroke-linecap="round" stroke-linejoin="round"/>
</svg>
