<svg width="35" height="35" viewBox="0 0 35 35" fill="none" xmlns="http://www.w3.org/2000/svg">
<path d="M26.3084 19.7604C25.6959 20.3583 25.3459 21.2187 25.4334 22.1375C25.5646 23.7125 27.0084 24.8646 28.5834 24.8646H31.3542V26.6C31.3542 29.6187 28.8896 32.0833 25.8709 32.0833H9.12921C6.11046 32.0833 3.64587 29.6187 3.64587 26.6V16.7854C3.64587 13.7666 6.11046 11.3021 9.12921 11.3021H25.8709C28.8896 11.3021 31.3542 13.7666 31.3542 16.7854V18.8854H28.4084C27.5917 18.8854 26.848 19.2062 26.3084 19.7604Z" stroke="black" stroke-width="1.5" stroke-linecap="round" stroke-linejoin="round"/>
<path d="M3.64587 18.0979V11.4333C3.64587 9.6979 4.71046 8.15207 6.32921 7.53957L17.9084 3.16457C18.3279 3.00646 18.7796 2.95253 19.2245 3.0074C19.6695 3.06226 20.0945 3.22429 20.4631 3.47957C20.8317 3.73485 21.1328 4.07575 21.3406 4.47302C21.5485 4.87029 21.6568 5.31205 21.6563 5.7604V11.3021M10.2084 17.5H20.4167M32.8986 20.3729V23.3771C32.8986 24.1791 32.2569 24.8354 31.4402 24.8646H28.5819C27.0069 24.8646 25.5632 23.7125 25.4319 22.1375C25.3444 21.2187 25.6944 20.3583 26.3069 19.7604C26.8465 19.2062 27.5902 18.8854 28.4069 18.8854H31.4402C32.2569 18.9146 32.8986 19.5708 32.8986 20.3729Z" stroke="black" stroke-width="1.5" stroke-linecap="round" stroke-linejoin="round"/>
</svg>
