<svg width="35" height="35" viewBox="0 0 35 35" fill="none" xmlns="http://www.w3.org/2000/svg">
<path d="M28.1459 11.55V19.0604C28.1459 23.5521 25.5792 25.4771 21.7292 25.4771H8.91044C8.25419 25.4771 7.62711 25.4188 7.04377 25.2875C6.67919 25.2292 6.32919 25.1271 6.00836 25.0104C3.82086 24.1938 2.49377 22.2979 2.49377 19.0604V11.55C2.49377 7.05836 5.06044 5.13336 8.91044 5.13336H21.7292C24.9959 5.13336 27.3438 6.51878 27.9709 9.68336C28.0729 10.2667 28.1459 10.8646 28.1459 11.55Z" stroke="black" stroke-width="1.5" stroke-miterlimit="10" stroke-linecap="round" stroke-linejoin="round"/>
<path d="M32.5223 15.925V23.4354C32.5223 27.9271 29.9556 29.8521 26.1056 29.8521H13.2868C12.2077 29.8521 11.2306 29.7063 10.3847 29.3854C8.64933 28.7438 7.46808 27.4167 7.04517 25.2875C7.6285 25.4188 8.25558 25.4771 8.91183 25.4771H21.7306C25.5806 25.4771 28.1473 23.5521 28.1473 19.0604V11.55C28.1473 10.8646 28.0889 10.2521 27.9723 9.68335C30.7431 10.2667 32.5223 12.2209 32.5223 15.925Z" stroke="black" stroke-width="1.5" stroke-miterlimit="10" stroke-linecap="round" stroke-linejoin="round"/>
<path d="M6.97083 12.1042V18.5209M23.6571 12.1042V18.5209M15.3096 19.1625C16.3307 19.1625 17.3099 18.7569 18.0319 18.0349C18.754 17.3129 19.1596 16.3336 19.1596 15.3125C19.1596 14.2914 18.754 13.3122 18.0319 12.5902C17.3099 11.8681 16.3307 11.4625 15.3096 11.4625C14.2885 11.4625 13.3092 11.8681 12.5872 12.5902C11.8652 13.3122 11.4596 14.2914 11.4596 15.3125C11.4596 16.3336 11.8652 17.3129 12.5872 18.0349C13.3092 18.7569 14.2885 19.1625 15.3096 19.1625Z" stroke="black" stroke-width="1.5" stroke-miterlimit="10" stroke-linecap="round" stroke-linejoin="round"/>
</svg>
